# xmcd CD database file
#
# Track frame offsets:
#	150
#	18085
#	35422
#	53467
#
# Disc length: 840 seconds
#
# Revision: 1
# Processed by: cddbd v1.5PL3 Copyright (c) Steve Scherf et al.
# Submitted via: CDex 1.50beta10
#
DISCID=20034604
DTITLE=JILS - PASSING e.p
DYEAR=1900
DGENRE=Rock
TTITLE0=せつないうた
TTITLE1=幾つもの夜を通り過ぎて、僕はまだ君の背中を見ている
TTITLE2=コイビト？／イミテーション
TTITLE3=忘れ得ぬ衝動、あの日君はただ立ち尽くしていた。
EXTD=
EXTT0=
EXTT1=
EXTT2=
EXTT3=
PLAYORDER=
